@startuml ParserCharacterBuilder

package under {
    package extend {
        package ex_stage {
            package ex_parser {
                class CharacterBuilder {
                    #makeImage(image) : GameImage <<override>>
                    #makeBody(body) : RigidBody
                    #makeBodyMaterial(material) : RigidBodyMaterial
                    #makeAI(ai) : AI
                    #makeEntityBase(deploy, entity) : Entity
                    #buildBody(base,deploy,json)
                    #buildAI(base,deploy,json)
                    #buildOwner(base,deploy,json)
                }
            }
        }
    }
}

package under {
    package base {
        package stage {
            package parser {
                abstract ImageBuilder
            }
            package entity {
                abstract AutonomyEntity
                package interface {
                    interface IOwned
                }
            }
        }
    }
    package extend {
        package ex_stage {
            package ex_parser {
                class TileBuilder
            }
            package ex_physics {
                package ex_body {
                    class ImmutableRigidMaterial
                    class MutableRigidMaterial
                    class MaxAdoptBody
                    class PreciseBody
                    class PlayerBody
                }
            }
            package ex_entity {
                package ex_character {
                    class Player
                    class Enemy
                }
                package ex_fire {
                    class ImmutableEvent
                    class OnceEventEntity
                }
                package ex_object {
                    class DoorObject
                    class SignObject
                }
                package ex_happen {
                    package ex_attack {
                        class AttackObject
                    }
                }
                package ex_spawn {
                    class EnemyRespawnEntity
                    class PlayerRespawnEntity
                }
                class AIListedObject
                class Character
                class StateCharacter
                class Obstacle
                class OnlyImageEntity
            }
            package ex_ai {
                class EnemyAI
                class StraightAI
                package ex_ai_attack {
                    class AttackObjectAI
                    class StraightAttackAI
                }
                package ex_gimmick {
                    class ElevatorAI
                    package ex_vanish {
                        class VanishStateAI
                    }
                }
                class JumpAI
                class PlayerGameOverStateAI
                class PlayerBaseStateAI
            }
        }

    }
}

CharacterBuilder ....> MaxAdoptBody : Generate
CharacterBuilder ....> PreciseBody : Generate
CharacterBuilder ....> PlayerBody : Generate

CharacterBuilder ....> ImmutableRigidMaterial : Generate
CharacterBuilder ....> MutableRigidMaterial : Generate

CharacterBuilder ...> EnemyAI : Generate
CharacterBuilder ...> StraightAI : Generate
CharacterBuilder ...> JumpAI : Generate
CharacterBuilder ...> ElevatorAI : Generate
CharacterBuilder ...> VanishStateAI : Generate
CharacterBuilder ...> PlayerGameOverStateAI : Generate
CharacterBuilder ...> PlayerBaseStateAI : Generate
CharacterBuilder ...> AttackObjectAI : Generate
CharacterBuilder ...> StraightAttackAI : Generate

CharacterBuilder ..> AIListedObject : Generate
CharacterBuilder ..> Character : Generate
CharacterBuilder ..> StateCharacter : Generate
CharacterBuilder ..> Player : Generate
CharacterBuilder ..> Enemy : Generate
CharacterBuilder ..> Obstacle : Generate
CharacterBuilder ..> DoorObject : Generate
CharacterBuilder ..> SignObject : Generate
CharacterBuilder ..> ImmutableEvent : Generate
CharacterBuilder ..> OnceEventEntity : Generate
CharacterBuilder ..> OnlyImageEntity : Generate
CharacterBuilder ..> EnemyRespawnEntity : Generate
CharacterBuilder ..> PlayerRespawnEntity : Generate

AutonomyEntity <... CharacterBuilder : Set
ImageBuilder <... CharacterBuilder : Build
IOwned <.. Character : Set

TileBuilder <|-- CharacterBuilder

@enduml
